<svg id="图层_1" data-name="图层 1" xmlns="http://www.w3.org/2000/svg" viewBox="0 0 300 300"><defs><style>.cls-1{fill:#252525;}.cls-2{fill:#282828;}.cls-3{fill:#fff;}</style></defs><rect class="cls-1" width="300" height="300"/><path class="cls-2" d="M33.2026,93.0864V70.45a1.6369,1.6369,0,0,1,.4786-1.1914,1.5666,1.5666,0,0,1,1.1621-.4883,1.6346,1.6346,0,0,1,1.6406,1.6416v7.76L46.9917,69.2a1.8021,1.8021,0,0,1,1.23-.43,1.5166,1.5166,0,0,1,1.1523.501,1.6434,1.6434,0,0,1,.4688,1.1562,1.4487,1.4487,0,0,1-.5371,1.1241L37.4019,81.67,49.3208,91.9673a1.3015,1.3015,0,0,1,.4834,1.0561,1.7125,1.7125,0,0,1-.4785,1.1753,1.5322,1.5322,0,0,1-1.1817.5284,1.7887,1.7887,0,0,1-1.1914-.4488L36.4839,85.2637v7.8242a1.6407,1.6407,0,0,1-3.2813-.0015Z" transform="translate(0 0)"/><path class="cls-2" d="M72.2847,72.09H60.6831v7.9883h5a1.6679,1.6679,0,0,1,1.6406,1.6406,1.6378,1.6378,0,0,1-.4785,1.1914,1.5663,1.5663,0,0,1-1.1621.4883h-5v8.0469H72.3237a1.5936,1.5936,0,0,1,1.1524.4785,1.5685,1.5685,0,0,1,.4883,1.1621,1.5506,1.5506,0,0,1-.4981,1.1621,1.6464,1.6464,0,0,1-1.1816.4786H57.4019V68.77H72.2847a1.7011,1.7011,0,0,1,1.68,1.68,1.5605,1.5605,0,0,1-.4981,1.1524A1.63,1.63,0,0,1,72.2847,72.09Z" transform="translate(0 0)"/><path class="cls-2" d="M96.4448,72.09H84.8433v7.9883h5a1.6679,1.6679,0,0,1,1.6406,1.6406,1.6382,1.6382,0,0,1-.4785,1.1914,1.5666,1.5666,0,0,1-1.1621.4883h-5v8.0469H96.4839a1.5934,1.5934,0,0,1,1.1523.4785,1.5685,1.5685,0,0,1,.4883,1.1621,1.5505,1.5505,0,0,1-.498,1.1621,1.6466,1.6466,0,0,1-1.1817.4786H81.562V68.77H96.4448a1.7009,1.7009,0,0,1,1.68,1.68,1.56,1.56,0,0,1-.498,1.1524A1.6307,1.6307,0,0,1,96.4448,72.09Z" transform="translate(0 0)"/><path class="cls-2" d="M105.7227,93.0864V68.77h11.6406a4.7211,4.7211,0,0,1,3.4668,1.4649,4.7937,4.7937,0,0,1,1.4551,3.4961v6.1523a4.9348,4.9348,0,0,1-4.9219,4.9219h-8.32v8.2812a1.6339,1.6339,0,0,1-1.6407,1.6407,1.6346,1.6346,0,0,1-1.1914-.4786A1.5631,1.5631,0,0,1,105.7227,93.0864Zm3.32-11.5625h8.32a1.5937,1.5937,0,0,0,1.1523-.4785,1.57,1.57,0,0,0,.4883-1.1621V73.731a1.5723,1.5723,0,0,0-.4883-1.1622,1.5957,1.5957,0,0,0-1.1523-.4785h-8.32Z" transform="translate(0 0)"/><path class="cls-2" d="M163.5547,68.77h5.4492a1.6338,1.6338,0,0,1,1.6406,1.6406,1.5649,1.5649,0,0,1-.5185,1.2012,1.629,1.629,0,0,1-1.125.4785h-5.2031a1.6284,1.6284,0,0,0-1.3291.7139l-4.6026,5.9233a2.96,2.96,0,0,0-.581,1.9541v9.084a1.6378,1.6378,0,0,0,.4785,1.1919,1.5655,1.5655,0,0,0,1.1621.4883h6.68a1.6679,1.6679,0,0,0,1.6406-1.6406V86.2505h-3.3984a1.5721,1.5721,0,0,1-1.1719-.4785,1.6748,1.6748,0,0,1,0-2.3242,1.5736,1.5736,0,0,1,1.1719-.4786h6.68v6.836a4.9348,4.9348,0,0,1-4.9218,4.9219h-6.68a4.7929,4.7929,0,0,1-3.5059-1.4454,4.7242,4.7242,0,0,1-1.4551-3.4765V80.7231a6.5049,6.5049,0,0,1,1.3086-4.121l4.8438-6.1524a4.5321,4.5321,0,0,1,3.4375-1.68Z" transform="translate(0 0)"/><path class="cls-2" d="M190.3516,71.1724l3.6132,7.3632a7.322,7.322,0,0,1,0,6.504l-3.6132,7.2851a4.0049,4.0049,0,0,1-3.9063,2.4024,4.2023,4.2023,0,0,1-2.3535-.6836,4.4574,4.4574,0,0,1-1.5723-1.7188L178.8867,85.04a7.0756,7.0756,0,0,1-.7226-3.2422,7.1992,7.1992,0,0,1,.7226-3.2618l3.6328-7.3632a4.1159,4.1159,0,0,1,3.9258-2.4024A4.028,4.028,0,0,1,190.3516,71.1724Zm-5,1.6406-3.3985,6.9141a4.9015,4.9015,0,0,0-.4687,2.0312,4.681,4.681,0,0,0,.4687,2.0508l3.4961,6.9922a.995.995,0,0,0,.9961.6445,1.0384,1.0384,0,0,0,.957-.6445l3.5157-6.9922a4.7813,4.7813,0,0,0,.4883-2.0508,4.4136,4.4136,0,0,0-.4883-2.0312l-3.4375-6.9141a1.0926,1.0926,0,0,0-1.0352-.7617A1.2018,1.2018,0,0,0,185.3516,72.813Z" transform="translate(0 0)"/><path class="cls-2" d="M203.9648,68.77h13.2813a1.5879,1.5879,0,0,1,1.1426.4883,1.5619,1.5619,0,0,1,.498,1.1523,1.6314,1.6314,0,0,1-.4883,1.1817,1.561,1.561,0,0,1-1.1523.498h-4.9609V91.4458h4.9609a1.6338,1.6338,0,0,1,1.6406,1.6406,1.5666,1.5666,0,0,1-.4883,1.1621,1.59,1.59,0,0,1-1.1523.4786H203.9648a1.6407,1.6407,0,1,1,0-3.2813h5.0391V72.09h-5.0391a1.5661,1.5661,0,0,1-1.1621-.4882,1.59,1.59,0,0,1-.4785-1.1524,1.6372,1.6372,0,0,1,.4785-1.1914A1.5677,1.5677,0,0,1,203.9648,68.77Z" transform="translate(0 0)"/><path class="cls-2" d="M243.0469,70.45V94.7271h-4.4l-8.8418-20.1563V93.0864a1.6407,1.6407,0,1,1-3.2813,0V68.77h4.335l8.8682,20.1172V70.45a1.7009,1.7009,0,0,1,1.68-1.68,1.5677,1.5677,0,0,1,1.1621.4883A1.6372,1.6372,0,0,1,243.0469,70.45Z" transform="translate(0 0)"/><path class="cls-2" d="M260.1953,68.77h5.4492a1.6339,1.6339,0,0,1,1.6407,1.6406,1.565,1.565,0,0,1-.5186,1.2012,1.629,1.629,0,0,1-1.125.4785h-5.2031a1.6284,1.6284,0,0,0-1.3291.7139l-4.6026,5.9233a2.96,2.96,0,0,0-.581,1.9541v9.084a1.6382,1.6382,0,0,0,.4785,1.1919,1.5657,1.5657,0,0,0,1.1621.4883h6.68a1.6679,1.6679,0,0,0,1.6406-1.6406V86.2505h-3.3984a1.5721,1.5721,0,0,1-1.1719-.4785,1.675,1.675,0,0,1,0-2.3242,1.5736,1.5736,0,0,1,1.1719-.4786h6.68v6.836a4.9348,4.9348,0,0,1-4.9219,4.9219h-6.68a4.7931,4.7931,0,0,1-3.5059-1.4454,4.7241,4.7241,0,0,1-1.455-3.4765V80.7231a6.5043,6.5043,0,0,1,1.3086-4.121l4.8437-6.1524a4.5321,4.5321,0,0,1,3.4375-1.68Z" transform="translate(0 0)"/><path class="cls-3" d="M85.7026,204.375h-2.832l-5.2344-9.6875v9.6875H75.0386V173.8086h2.5976v19.4141l4.8828-7.8516h2.793v.0781l-5.5273,8.3985Z" transform="translate(0 0)"/><path class="cls-3" d="M99.062,202.168a1.9422,1.9422,0,0,1-2.1875,2.207h-6.25a1.942,1.942,0,0,1-2.1875-2.207v-14.59a1.9419,1.9419,0,0,1,2.1875-2.207h6.25a1.9421,1.9421,0,0,1,2.1875,2.207v6.836l-.8789.9179H90.9565v6.875h5.586v-3.4765H99.062Zm-2.5195-8.9063v-5.7226h-5.586v5.7226Z" transform="translate(0 0)"/><path class="cls-3" d="M114.062,185.3711l-4.57,18.8477-1.8945,7.3632h-2.5586l1.914-7.3632-4.6875-18.8477h2.6758l3.2422,14.9609,3.2813-14.9609Z" transform="translate(0 0)"/><path class="cls-3" d="M119.9214,191.1719h-2.9688v-3.4375h2.9688Zm0,13.2031h-2.9688v-3.4375h2.9688Z" transform="translate(0 0)"/><path class="cls-3" d="M134.8042,204.375h-2.5977v-16.68l-5.7226.1563V204.375h-2.5977V185.3711h2.5977v.5273q1.5234-.1947,3.0664-.41a25.8042,25.8042,0,0,1,3.0859-.2344,1.8993,1.8993,0,0,1,2.168,2.1289Z" transform="translate(0 0)"/><path class="cls-3" d="M149.9219,202.168a1.9509,1.9509,0,0,1-2.2071,2.207h-6.5234a1.9418,1.9418,0,0,1-2.1875-2.207v-14.59a1.9417,1.9417,0,0,1,2.1875-2.207h6.5234a1.9509,1.9509,0,0,1,2.2071,2.207Zm-2.5977-.0782V187.6563h-5.7226V202.09Z" transform="translate(0 0)"/><path class="cls-3" d="M160.9961,204.375h-3.6914a1.9422,1.9422,0,0,1-2.1875-2.207V187.6563H152.832v-2.2852h2.2852v-5.918h2.5586v5.918h3.32v2.2852h-3.32V202.09h3.32Z" transform="translate(0 0)"/><path class="cls-3" d="M176.6211,212.3828H162.1875v-2.168h14.4336Z" transform="translate(0 0)"/><path class="cls-3" d="M189.668,204.375H187.07v-16.68l-5.7226.1563V204.375H178.75V185.3711h2.5977v.5273q1.5234-.1947,3.0664-.41a25.8042,25.8042,0,0,1,3.0859-.2344,1.8993,1.8993,0,0,1,2.168,2.1289Z" transform="translate(0 0)"/><path class="cls-3" d="M204.7852,202.168a1.9505,1.9505,0,0,1-2.2071,2.207h-6.5234a1.9422,1.9422,0,0,1-2.1875-2.207v-14.59a1.9421,1.9421,0,0,1,2.1875-2.207h6.5234a1.9505,1.9505,0,0,1,2.2071,2.207Zm-2.5977-.0782V187.6563h-5.7227V202.09Z" transform="translate(0 0)"/><path class="cls-3" d="M226.0156,185.3711l-3.9258,19.043h-2.3242l-2.7929-14.4336-2.793,14.4336h-2.2852l-3.9257-19.043H210.41l2.6757,14.6484,2.7735-14.6484h2.2656l2.7734,14.6484,2.6758-14.6484Z" transform="translate(0 0)"/><rect class="cls-1" x="57.5452" y="156.8829" width="199.6656" height="68.5619"/></svg>